<?xml version="1.0" encoding="UTF-8"?>
<!-- Generator: Adobe Illustrator 28.0.0, SVG Export Plug-In . SVG Version: 6.00 Build 0)  -->
<svg version="1.1" id="Слой_1" xmlns="http://www.w3.org/2000/svg" xmlns:xlink="http://www.w3.org/1999/xlink" x="0px" y="0px" viewBox="0 0 75 75" style="enable-background:new 0 0 75 75;" xml:space="preserve">
<style type="text/css">
	.st1{fill:#000;}
</style>
<g id="Слой_4" class="st0">
</g>
<g id="Слой_3">
	<g>
		<path class="st1" d="M43.3,3.6C43.7,2.4,44,1.2,44.2,0H16C7.2,0,0,7.2,0,16v3.8c2.2,1.4,4.6,2.5,7.2,3.3    C22.5,27.7,38.7,19,43.3,3.6z"/>
		<path class="st1" d="M71.4,42.3c1.2,0.4,2.4,0.6,3.6,0.8V16c0-8.8-7.2-16-16-16h-4.4c-1.1,1.9-2,4-2.7,6.2    C47.4,21.5,56.1,37.7,71.4,42.3z"/>
		<path class="st1" d="M4.6,31.7c-1.5-0.5-3.1-0.8-4.6-1V59c0,8.8,7.2,16,16,16h4.8c1.4-2.2,2.5-4.6,3.3-7.2    C28.7,52.5,20,36.3,4.6,31.7z"/>
		<path class="st1" d="M68.9,51c-15.4-4.6-31.6,4.1-36.2,19.5c-0.5,1.5-0.8,3.1-1,4.6H59c8.8,0,16-7.2,16-16v-5.4    C73.1,52.5,71.1,51.6,68.9,51z"/>
	</g>
</g>
</svg>